<?xml version="1.0" standalone="no"?>
<!DOCTYPE svg PUBLIC "-//W3C//DTD SVG 20010904//EN"
 "http://www.w3.org/TR/2001/REC-SVG-20010904/DTD/svg10.dtd">
<svg version="1.0" xmlns="http://www.w3.org/2000/svg"
 width="261.000000pt" height="261.000000pt" viewBox="0 0 261.000000 261.000000"
 preserveAspectRatio="xMidYMid meet">
<metadata>
Created by potrace 1.11, written by Peter Selinger 2001-2013
</metadata>
<g transform="translate(0.000000,261.000000) scale(0.100000,-0.100000)"
fill="#000000" stroke="none">
<path d="M945 2122 c-110 -12 -209 -65 -293 -157 -81 -89 -108 -152 -118 -280
-3 -38 -7 -75 -9 -82 -2 -6 -30 -19 -61 -28 -172 -50 -289 -165 -310 -305 -12
-86 -6 -195 16 -260 36 -108 95 -181 203 -251 140 -91 272 -102 412 -36 42 21
79 37 81 37 2 0 13 -19 24 -43 27 -55 81 -113 131 -139 85 -44 230 -22 301 46
15 14 30 26 33 26 3 0 15 -19 25 -42 26 -57 59 -94 95 -106 69 -22 219 13 267
63 13 13 28 40 33 60 l11 36 34 -31 c75 -68 203 -108 330 -102 73 3 116 18
171 58 58 42 96 99 114 172 22 88 9 168 -52 320 -18 46 -30 89 -26 95 4 7 26
38 50 70 53 73 66 118 65 228 -1 93 -18 157 -59 223 -30 49 -54 70 -108 95
-51 24 -73 26 -163 17 -70 -8 -74 -7 -90 15 -46 67 -100 112 -176 149 -116 56
-249 90 -381 97 -100 5 -116 3 -185 -20 l-75 -26 -42 30 c-82 58 -162 81 -248
71z"/>
</g>
</svg>
